name kv05_filtered_grf.mot
datacolumns 37
datarows 15
range 0.180500 0.187500
endheader
time	1_ground_force_vx	1_ground_force_vy	1_ground_force_vz	1_ground_force_px	1_ground_force_py	1_ground_force_pz	1_ground_torque_x	1_ground_torque_y	1_ground_torque_z	2_ground_force_vx	2_ground_force_vy	2_ground_force_vz	2_ground_force_px	2_ground_force_py	2_ground_force_pz	2_ground_torque_x	2_ground_torque_y	2_ground_torque_z	3_ground_force_vx	3_ground_force_vy	3_ground_force_vz	3_ground_force_px	3_ground_force_py	3_ground_force_pz	3_ground_torque_x	3_ground_torque_y	3_ground_torque_z	4_ground_force_vx	4_ground_force_vy	4_ground_force_vz	4_ground_force_px	4_ground_force_py	4_ground_force_pz	4_ground_torque_x	4_ground_torque_y	4_ground_torque_z
            0.180500	           -0.000087	            0.028319	            0.003531	            0.130560	            0.000000	            0.250779	            0.018591	            0.000601	           -0.008981	            0.024388	           -0.008365	           -0.039048	           -0.241881	            0.000000	            0.344507	           -0.002065	           -0.000028	            0.001557	           11.583555	          324.769813	           37.978906	            0.386588	            0.967750	            1.075087	           -0.125242	           -3.511439	           -0.410631	          -25.634961	          340.392984	           13.138019	           -0.368846	            0.966045	            1.108926	           -0.402110	            5.339404	            0.206083
            0.181000	           -0.000173	            0.028783	            0.003286	            0.130560	            0.000000	            0.250779	            0.018848	            0.000643	           -0.009150	            0.026040	           -0.005399	           -0.049676	           -0.241881	            0.000000	            0.344507	           -0.002958	           -0.000023	            0.001312	           11.497299	          324.705422	           37.681461	            0.386584	            0.967746	            1.075080	           -0.124590	           -3.518660	           -0.408334	          -25.429522	          340.865812	           12.827186	           -0.368843	            0.966037	            1.108920	           -0.400106	            5.363153	            0.201822
            0.181500	           -0.000254	            0.029085	            0.003038	            0.130560	            0.000000	            0.250779	            0.019002	            0.000679	           -0.009267	            0.027416	           -0.002566	           -0.059265	           -0.241881	            0.000000	            0.344507	           -0.003769	           -0.000019	            0.001078	           11.419905	          324.634912	           37.384288	            0.386579	            0.967742	            1.075073	           -0.124029	           -3.525784	           -0.406022	          -25.224805	          341.326090	           12.520285	           -0.368840	            0.966029	            1.108914	           -0.398095	            5.386776	            0.197594
            0.182000	           -0.000329	            0.029232	            0.002789	            0.130560	            0.000000	            0.250779	            0.019057	            0.000710	           -0.009334	            0.028528	            0.000127	           -0.067844	           -0.241881	            0.000000	            0.344507	           -0.004501	           -0.000015	            0.000857	           11.351331	          324.558682	           37.087465	            0.386575	            0.967738	            1.075065	           -0.123559	           -3.532806	           -0.403695	          -25.020913	          341.773734	           12.217385	           -0.368838	            0.966020	            1.108909	           -0.396080	            5.410263	            0.193401
            0.182500	           -0.000399	            0.029231	            0.002539	            0.130560	            0.000000	            0.250779	            0.019017	            0.000736	           -0.009352	            0.029390	            0.002676	           -0.075442	           -0.241881	            0.000000	            0.344507	           -0.005156	           -0.000011	            0.000649	           11.291518	          324.477127	           36.791063	            0.386571	            0.967733	            1.075058	           -0.123179	           -3.539725	           -0.401354	          -24.817941	          342.208669	           11.918542	           -0.368835	            0.966012	            1.108903	           -0.394060	            5.433604	            0.189243
            0.183000	           -0.000463	            0.029090	            0.002290	            0.130560	            0.000000	            0.250779	            0.018889	            0.000757	           -0.009324	            0.030015	            0.005074	           -0.082091	           -0.241881	            0.000000	            0.344507	           -0.005736	           -0.000007	            0.000452	           11.239061	          324.389747	           36.503494	            0.386570	            0.967729	            1.075051	           -0.122876	           -3.546528	           -0.399090	          -24.616387	          342.630586	           11.630195	           -0.368834	            0.966005	            1.108896	           -0.392044	            5.456786	            0.185224
            0.183500	           -0.000522	            0.028817	            0.002043	            0.130560	            0.000000	            0.250779	            0.018677	            0.000773	           -0.009253	            0.030416	            0.007320	           -0.087823	           -0.241881	            0.000000	            0.344507	           -0.006244	           -0.000003	            0.000268	           11.195223	          324.297840	           36.216454	            0.386569	            0.967725	            1.075044	           -0.122662	           -3.553221	           -0.396811	          -24.415882	          343.039688	           11.346019	           -0.368834	            0.965998	            1.108889	           -0.390026	            5.479804	            0.181244
            0.184000	           -0.000575	            0.028420	            0.001799	            0.130560	            0.000000	            0.250779	            0.018386	            0.000785	           -0.009142	            0.030608	            0.009409	           -0.092673	           -0.241881	            0.000000	            0.344507	           -0.006681	            0.000000	            0.000096	           11.159902	          324.201796	           35.929992	            0.386568	            0.967721	            1.075037	           -0.122538	           -3.559802	           -0.394519	          -24.216481	          343.435933	           11.066039	           -0.368834	            0.965991	            1.108881	           -0.388005	            5.502650	            0.177304
            0.184500	           -0.000622	            0.027908	            0.001559	            0.130560	            0.000000	            0.250779	            0.018023	            0.000792	           -0.008992	            0.030604	            0.011341	           -0.096678	           -0.241881	            0.000000	            0.344507	           -0.007052	            0.000004	           -0.000064	           11.132980	          324.102001	           35.644148	            0.386567	            0.967717	            1.075031	           -0.122502	           -3.566267	           -0.392212	          -24.018227	          343.819286	           10.790272	           -0.368834	            0.965984	            1.108874	           -0.385983	            5.525317	            0.173404
            0.185000	           -0.000664	            0.027289	            0.001324	            0.130560	            0.000000	            0.250779	            0.017592	            0.000796	           -0.008808	            0.030417	            0.013114	           -0.099875	           -0.241881	            0.000000	            0.344507	           -0.007358	            0.000007	           -0.000212	           11.114327	          323.998840	           35.358957	            0.386566	            0.967713	            1.075024	           -0.122554	           -3.572615	           -0.389890	          -23.821157	          344.189726	           10.518727	           -0.368833	            0.965976	            1.108866	           -0.383960	            5.547798	            0.169545
            0.185500	           -0.000701	            0.026572	            0.001095	            0.130560	            0.000000	            0.250779	            0.017099	            0.000795	           -0.008590	            0.030061	            0.014728	           -0.102302	           -0.241881	            0.000000	            0.344507	           -0.007602	            0.000010	           -0.000349	           11.102526	          323.891794	           35.083194	            0.386568	            0.967710	            1.075017	           -0.122677	           -3.578833	           -0.387651	          -23.625682	          344.547022	           10.257788	           -0.368836	            0.965971	            1.108857	           -0.381942	            5.570083	            0.165831
            0.186000	           -0.000733	            0.025765	            0.000873	            0.130560	            0.000000	            0.250779	            0.016550	            0.000790	           -0.008343	            0.029549	            0.016185	           -0.103999	           -0.241881	            0.000000	            0.344507	           -0.007788	            0.000012	           -0.000474	           11.098708	          323.782162	           34.808130	            0.386570	            0.967706	            1.075010	           -0.122885	           -3.584927	           -0.385397	          -23.431420	          344.891398	           10.001089	           -0.368838	            0.965965	            1.108848	           -0.379924	            5.592170	            0.162161
            0.186500	           -0.000759	            0.024876	            0.000659	            0.130560	            0.000000	            0.250779	            0.015951	            0.000782	           -0.008069	            0.028895	            0.017484	           -0.105006	           -0.241881	            0.000000	            0.344507	           -0.007918	            0.000015	           -0.000588	           11.102699	          323.670324	           34.533782	            0.386572	            0.967702	            1.075003	           -0.123177	           -3.590897	           -0.383128	          -23.238384	          345.222861	            9.748617	           -0.368840	            0.965959	            1.108839	           -0.377905	            5.614055	            0.158533
            0.187000	           -0.000780	            0.023915	            0.000452	            0.130560	            0.000000	            0.250779	            0.015306	            0.000771	           -0.007771	            0.028112	            0.018630	           -0.105363	           -0.241881	            0.000000	            0.344507	           -0.007996	            0.000017	           -0.000691	           11.114316	          323.556658	           34.260163	            0.386573	            0.967698	            1.074996	           -0.123550	           -3.596738	           -0.380845	          -23.046578	          345.541429	            9.500350	           -0.368843	            0.965953	            1.108829	           -0.375886	            5.635732	            0.154949
            0.187500	           -0.000797	            0.022889	            0.000254	            0.130560	            0.000000	            0.250779	            0.014622	            0.000757	           -0.007451	            0.027212	            0.019623	           -0.105111	           -0.241881	            0.000000	            0.344507	           -0.008024	            0.000019	           -0.000783	           11.133362	          323.441540	           33.987282	            0.386575	            0.967695	            1.074989	           -0.124002	           -3.602449	           -0.378546	          -22.856003	          345.847128	            9.256264	           -0.368845	            0.965947	            1.108820	           -0.373867	            5.657199	            0.151409
